<svg width="400" height="300" viewBox="0 0 400 300" fill="none" xmlns="http://www.w3.org/2000/svg">
  <!-- Background gradient -->
  <defs>
    <linearGradient id="bgGradient" x1="0%" y1="0%" x2="100%" y2="100%">
      <stop offset="0%" style="stop-color:#ec4899;stop-opacity:1" />
      <stop offset="100%" style="stop-color:#db2777;stop-opacity:1" />
    </linearGradient>
    <linearGradient id="cardGradient" x1="0%" y1="0%" x2="100%" y2="100%">
      <stop offset="0%" style="stop-color:#ffffff;stop-opacity:0.9" />
      <stop offset="100%" style="stop-color:#f8fafc;stop-opacity:0.9" />
    </linearGradient>
  </defs>
  
  <!-- Background -->
  <rect width="400" height="300" fill="url(#bgGradient)"/>
  
  <!-- Decorative elements -->
  <circle cx="70" cy="70" r="22" fill="white" opacity="0.1"/>
  <circle cx="330" cy="60" r="18" fill="white" opacity="0.1"/>
  <circle cx="300" cy="250" r="20" fill="white" opacity="0.1"/>
  
  <!-- Main content area -->
  <rect x="40" y="40" width="320" height="220" rx="20" fill="url(#cardGradient)" stroke="white" stroke-width="2"/>
  
  <!-- Header -->
  <rect x="60" y="60" width="280" height="40" rx="8" fill="#ec4899"/>
  <text x="200" y="85" text-anchor="middle" fill="white" font-family="Arial, sans-serif" font-size="16" font-weight="bold">FINANCES APP</text>
  
  <!-- Mobile phone -->
  <rect x="120" y="120" width="160" height="120" rx="20" fill="#1f2937"/>
  <rect x="125" y="125" width="150" height="110" rx="15" fill="#f3f4f6"/>
  
  <!-- App header -->
  <rect x="125" y="125" width="150" height="25" rx="15" fill="#ec4899"/>
  <text x="200" y="140" text-anchor="middle" fill="white" font-family="Arial, sans-serif" font-size="10" font-weight="bold">Mes Finances</text>
  
  <!-- Balance display -->
  <rect x="135" y="160" width="130" height="30" rx="6" fill="#dbeafe"/>
  <text x="200" y="175" text-anchor="middle" fill="#1e40af" font-family="Arial, sans-serif" font-size="12" font-weight="bold">€2,450.00</text>
  <text x="200" y="185" text-anchor="middle" fill="#64748b" font-family="Arial, sans-serif" font-size="8">Solde actuel</text>
  
  <!-- Chart -->
  <rect x="135" y="200" width="130" height="30" rx="6" fill="#fef3c7"/>
  <rect x="140" y="205" width="8" height="20" rx="2" fill="#f59e0b"/>
  <rect x="150" y="210" width="8" height="15" rx="2" fill="#f59e0b"/>
  <rect x="160" y="208" width="8" height="17" rx="2" fill="#f59e0b"/>
  <rect x="170" y="205" width="8" height="20" rx="2" fill="#f59e0b"/>
  <rect x="180" y="212" width="8" height="13" rx="2" fill="#f59e0b"/>
  <rect x="190" y="207" width="8" height="18" rx="2" fill="#f59e0b"/>
  <rect x="200" y="203" width="8" height="22" rx="2" fill="#f59e0b"/>
  <rect x="210" y="209" width="8" height="16" rx="2" fill="#f59e0b"/>
  <rect x="220" y="206" width="8" height="19" rx="2" fill="#f59e0b"/>
  <rect x="230" y="211" width="8" height="14" rx="2" fill="#f59e0b"/>
  <rect x="240" y="204" width="8" height="21" rx="2" fill="#f59e0b"/>
  <rect x="250" y="208" width="8" height="17" rx="2" fill="#f59e0b"/>
  
  <!-- Quick actions -->
  <rect x="135" y="240" width="40" height="25" rx="4" fill="#dcfce7"/>
  <text x="155" y="255" text-anchor="middle" fill="#166534" font-family="Arial, sans-serif" font-size="8" font-weight="bold">+</text>
  
  <rect x="185" y="240" width="40" height="25" rx="4" fill="#fee2e2"/>
  <text x="205" y="255" text-anchor="middle" fill="#dc2626" font-family="Arial, sans-serif" font-size="8" font-weight="bold">-</text>
  
  <rect x="235" y="240" width="30" height="25" rx="4" fill="#e0e7ff"/>
  <text x="250" y="255" text-anchor="middle" fill="#3730a3" font-family="Arial, sans-serif" font-size="8" font-weight="bold">📊</text>
  
  <!-- Bottom info -->
  <rect x="80" y="270" width="240" height="20" rx="4" fill="#f1f5f9"/>
  <text x="200" y="285" text-anchor="middle" fill="#64748b" font-family="Arial, sans-serif" font-size="12">Application de gestion financière personnelle</text>
</svg> 